<svg xmlns="http://www.w3.org/2000/svg" viewBox="0 0 1024 1024" width="1024" height="1024">
  <path d="M 1024.0 512.0 L 1024.0 613.4 L 1023.9 645.8 L 1023.7 669.3 L 1023.5 688.5 L 1023.2 704.9 L 1022.9 719.5 L 1022.5 732.6 L 1022.0 744.6 L 1021.5 755.8 L 1020.9 766.2 L 1020.2 775.9 L 1019.5 785.2 L 1018.7 793.9 L 1017.9 802.2 L 1016.9 810.2 L 1016.0 817.8 L 1014.9 825.1 L 1013.8 832.1 L 1012.7 838.8 L 1011.4 845.3 L 1010.1 851.6 L 1008.7 857.7 L 1007.3 863.6 L 1005.8 869.3 L 1004.2 874.8 L 1002.6 880.1 L 1000.9 885.3 L 999.1 890.4 L 997.3 895.3 L 995.4 900.0 L 993.4 904.7 L 991.3 909.1 L 989.2 913.5 L 987.0 917.8 L 984.7 921.9 L 982.4 926.0 L 980.0 929.9 L 977.5 933.7 L 974.9 937.4 L 972.2 941.0 L 969.5 944.6 L 966.7 948.0 L 963.8 951.3 L 960.8 954.6 L 957.7 957.7 L 954.6 960.8 L 951.3 963.8 L 948.0 966.7 L 944.6 969.5 L 941.0 972.2 L 937.4 974.9 L 933.7 977.5 L 929.9 980.0 L 926.0 982.4 L 921.9 984.7 L 917.8 987.0 L 913.5 989.2 L 909.1 991.3 L 904.7 993.4 L 900.0 995.4 L 895.3 997.3 L 890.4 999.1 L 885.3 1000.9 L 880.1 1002.6 L 874.8 1004.2 L 869.3 1005.8 L 863.6 1007.3 L 857.7 1008.7 L 851.6 1010.1 L 845.3 1011.4 L 838.8 1012.7 L 832.1 1013.8 L 825.1 1014.9 L 817.8 1016.0 L 810.2 1016.9 L 802.2 1017.9 L 793.9 1018.7 L 785.2 1019.5 L 775.9 1020.2 L 766.2 1020.9 L 755.8 1021.5 L 744.6 1022.0 L 732.6 1022.5 L 719.5 1022.9 L 704.9 1023.2 L 688.5 1023.5 L 669.3 1023.7 L 645.8 1023.9 L 613.4 1024.0 L 512.0 1024.0 L 410.6 1024.0 L 378.2 1023.9 L 354.7 1023.7 L 335.5 1023.5 L 319.1 1023.2 L 304.5 1022.9 L 291.4 1022.5 L 279.4 1022.0 L 268.2 1021.5 L 257.8 1020.9 L 248.1 1020.2 L 238.8 1019.5 L 230.1 1018.7 L 221.8 1017.9 L 213.8 1016.9 L 206.2 1016.0 L 198.9 1014.9 L 191.9 1013.8 L 185.2 1012.7 L 178.7 1011.4 L 172.4 1010.1 L 166.3 1008.7 L 160.4 1007.3 L 154.7 1005.8 L 149.2 1004.2 L 143.9 1002.6 L 138.7 1000.9 L 133.6 999.1 L 128.7 997.3 L 124.0 995.4 L 119.3 993.4 L 114.9 991.3 L 110.5 989.2 L 106.2 987.0 L 102.1 984.7 L 98.0 982.4 L 94.1 980.0 L 90.3 977.5 L 86.6 974.9 L 83.0 972.2 L 79.4 969.5 L 76.0 966.7 L 72.7 963.8 L 69.4 960.8 L 66.3 957.7 L 63.2 954.6 L 60.2 951.3 L 57.3 948.0 L 54.5 944.6 L 51.8 941.0 L 49.1 937.4 L 46.5 933.7 L 44.0 929.9 L 41.6 926.0 L 39.3 921.9 L 37.0 917.8 L 34.8 913.5 L 32.7 909.1 L 30.6 904.7 L 28.6 900.0 L 26.7 895.3 L 24.9 890.4 L 23.1 885.3 L 21.4 880.1 L 19.8 874.8 L 18.2 869.3 L 16.7 863.6 L 15.3 857.7 L 13.9 851.6 L 12.6 845.3 L 11.3 838.8 L 10.2 832.1 L 9.1 825.1 L 8.0 817.8 L 7.1 810.2 L 6.1 802.2 L 5.3 793.9 L 4.5 785.2 L 3.8 775.9 L 3.1 766.2 L 2.5 755.8 L 2.0 744.6 L 1.5 732.6 L 1.1 719.5 L 0.8 704.9 L 0.5 688.5 L 0.3 669.3 L 0.1 645.8 L 0.0 613.4 L 0.0 512.0 L 0.0 410.6 L 0.1 378.2 L 0.3 354.7 L 0.5 335.5 L 0.8 319.1 L 1.1 304.5 L 1.5 291.4 L 2.0 279.4 L 2.5 268.2 L 3.1 257.8 L 3.8 248.1 L 4.5 238.8 L 5.3 230.1 L 6.1 221.8 L 7.1 213.8 L 8.0 206.2 L 9.1 198.9 L 10.2 191.9 L 11.3 185.2 L 12.6 178.7 L 13.9 172.4 L 15.3 166.3 L 16.7 160.4 L 18.2 154.7 L 19.8 149.2 L 21.4 143.9 L 23.1 138.7 L 24.9 133.6 L 26.7 128.7 L 28.6 124.0 L 30.6 119.3 L 32.7 114.9 L 34.8 110.5 L 37.0 106.2 L 39.3 102.1 L 41.6 98.0 L 44.0 94.1 L 46.5 90.3 L 49.1 86.6 L 51.8 83.0 L 54.5 79.4 L 57.3 76.0 L 60.2 72.7 L 63.2 69.4 L 66.3 66.3 L 69.4 63.2 L 72.7 60.2 L 76.0 57.3 L 79.4 54.5 L 83.0 51.8 L 86.6 49.1 L 90.3 46.5 L 94.1 44.0 L 98.0 41.6 L 102.1 39.3 L 106.2 37.0 L 110.5 34.8 L 114.9 32.7 L 119.3 30.6 L 124.0 28.6 L 128.7 26.7 L 133.6 24.9 L 138.7 23.1 L 143.9 21.4 L 149.2 19.8 L 154.7 18.2 L 160.4 16.7 L 166.3 15.3 L 172.4 13.9 L 178.7 12.6 L 185.2 11.3 L 191.9 10.2 L 198.9 9.1 L 206.2 8.0 L 213.8 7.1 L 221.8 6.1 L 230.1 5.3 L 238.8 4.5 L 248.1 3.8 L 257.8 3.1 L 268.2 2.5 L 279.4 2.0 L 291.4 1.5 L 304.5 1.1 L 319.1 0.8 L 335.5 0.5 L 354.7 0.3 L 378.2 0.1 L 410.6 0.0 L 512.0 0.0 L 613.4 0.0 L 645.8 0.1 L 669.3 0.3 L 688.5 0.5 L 704.9 0.8 L 719.5 1.1 L 732.6 1.5 L 744.6 2.0 L 755.8 2.5 L 766.2 3.1 L 775.9 3.8 L 785.2 4.5 L 793.9 5.3 L 802.2 6.1 L 810.2 7.1 L 817.8 8.0 L 825.1 9.1 L 832.1 10.2 L 838.8 11.3 L 845.3 12.6 L 851.6 13.9 L 857.7 15.3 L 863.6 16.7 L 869.3 18.2 L 874.8 19.8 L 880.1 21.4 L 885.3 23.1 L 890.4 24.9 L 895.3 26.7 L 900.0 28.6 L 904.7 30.6 L 909.1 32.7 L 913.5 34.8 L 917.8 37.0 L 921.9 39.3 L 926.0 41.6 L 929.9 44.0 L 933.7 46.5 L 937.4 49.1 L 941.0 51.8 L 944.6 54.5 L 948.0 57.3 L 951.3 60.2 L 954.6 63.2 L 957.7 66.3 L 960.8 69.4 L 963.8 72.7 L 966.7 76.0 L 969.5 79.4 L 972.2 83.0 L 974.9 86.6 L 977.5 90.3 L 980.0 94.1 L 982.4 98.0 L 984.7 102.1 L 987.0 106.2 L 989.2 110.5 L 991.3 114.9 L 993.4 119.3 L 995.4 124.0 L 997.3 128.7 L 999.1 133.6 L 1000.9 138.7 L 1002.6 143.9 L 1004.2 149.2 L 1005.8 154.7 L 1007.3 160.4 L 1008.7 166.3 L 1010.1 172.4 L 1011.4 178.7 L 1012.7 185.2 L 1013.8 191.9 L 1014.9 198.9 L 1016.0 206.2 L 1016.9 213.8 L 1017.9 221.8 L 1018.7 230.1 L 1019.5 238.8 L 1020.2 248.1 L 1020.9 257.8 L 1021.5 268.2 L 1022.0 279.4 L 1022.5 291.4 L 1022.9 304.5 L 1023.2 319.1 L 1023.5 335.5 L 1023.7 354.7 L 1023.9 378.2 L 1024.0 410.6 Z" fill="#F97316"/>
</svg>
